<svg width="20" height="20" viewBox="0 0 20 20" fill="none" xmlns="http://www.w3.org/2000/svg">
    <path fill-rule="evenodd" clip-rule="evenodd" d="M15.0181 13.5224L19.2395 17.7497C19.428 17.9594 19.4187 18.2805 19.2184 18.4789L18.4797 19.2187C18.3806 19.3187 18.2457 19.375 18.105 19.375C17.9643 19.375 17.8294 19.3187 17.7303 19.2187L13.5089 14.9914C13.3922 14.8744 13.2862 14.747 13.1923 14.6109L12.4008 13.5541C11.0912 14.6013 9.46484 15.1715 7.78888 15.171C4.33534 15.183 1.33434 12.7974 0.562566 9.4265C-0.209209 6.05558 1.45421 2.59904 4.56804 1.10324C7.68186 -0.392556 11.4151 0.471597 13.5575 3.1841C15.6999 5.8966 15.6797 9.73352 13.5089 12.4233L14.5643 13.1525C14.7291 13.2581 14.8813 13.3822 15.0181 13.5224ZM2.51227 7.77298C2.51227 10.6913 4.87477 13.0571 7.78905 13.0571C9.18855 13.0571 10.5307 12.5004 11.5203 11.5094C12.5099 10.5185 13.0658 9.17442 13.0658 7.77298C13.0658 4.85463 10.7033 2.48884 7.78905 2.48884C4.87477 2.48884 2.51227 4.85463 2.51227 7.77298Z" fill="black"/>
    <path d="M19.2395 17.7497L19.5184 17.499L19.5118 17.4917L19.5049 17.4847L19.2395 17.7497ZM15.0181 13.5224L14.7496 13.7843L14.7527 13.7874L15.0181 13.5224ZM19.2184 18.4789L18.9545 18.2125L18.9531 18.2139L19.2184 18.4789ZM18.4797 19.2187L18.2143 18.9537L18.2132 18.9548L18.4797 19.2187ZM17.7303 19.2187L17.9968 18.9548L17.9957 18.9537L17.7303 19.2187ZM13.5089 14.9914L13.2435 15.2563L13.2436 15.2564L13.5089 14.9914ZM13.1923 14.6109L13.501 14.398L13.4968 14.392L13.4925 14.3861L13.1923 14.6109ZM12.4008 13.5541L12.7009 13.3293L12.4689 13.0195L12.1666 13.2612L12.4008 13.5541ZM7.78888 15.171L7.78899 14.796L7.78758 14.796L7.78888 15.171ZM0.562566 9.4265L0.197025 9.51019L0.562566 9.4265ZM4.56804 1.10324L4.40566 0.76522L4.56804 1.10324ZM13.5575 3.1841L13.2632 3.41653L13.5575 3.1841ZM13.5089 12.4233L13.2171 12.1878L12.9634 12.5022L13.2957 12.7318L13.5089 12.4233ZM14.5643 13.1525L14.351 13.4612L14.3619 13.4682L14.5643 13.1525ZM11.5203 11.5094L11.7857 11.7744L11.5203 11.5094ZM19.2395 17.7497L19.5049 17.4847L15.2834 13.2574L15.0181 13.5224L14.7527 13.7874L18.9742 18.0147L19.2395 17.7497ZM19.2184 18.4789L19.4823 18.7453C19.8248 18.4061 19.8406 17.8575 19.5184 17.499L19.2395 17.7497L18.9606 18.0004C19.0154 18.0614 19.0127 18.1549 18.9545 18.2125L19.2184 18.4789ZM18.4797 19.2187L18.745 19.4837L19.4838 18.7439L19.2184 18.4789L18.9531 18.2139L18.2143 18.9537L18.4797 19.2187ZM18.105 19.375V19.75C18.3459 19.75 18.5766 19.6537 18.7461 19.4826L18.4797 19.2187L18.2132 18.9548C18.1845 18.9838 18.1455 19 18.105 19V19.375ZM17.7303 19.2187L17.4639 19.4826C17.6334 19.6537 17.8641 19.75 18.105 19.75V19.375V19C18.0645 19 18.0255 18.9838 17.9968 18.9548L17.7303 19.2187ZM13.5089 14.9914L13.2436 15.2564L17.465 19.4837L17.7303 19.2187L17.9957 18.9537L13.7743 14.7264L13.5089 14.9914ZM13.1923 14.6109L12.8836 14.8239C12.9903 14.9785 13.1108 15.1233 13.2435 15.2563L13.5089 14.9914L13.7744 14.7265C13.6736 14.6255 13.5821 14.5155 13.501 14.398L13.1923 14.6109ZM12.4008 13.5541L12.1006 13.7789L12.8922 14.8357L13.1923 14.6109L13.4925 14.3861L12.7009 13.3293L12.4008 13.5541ZM7.78888 15.171L7.78877 15.546C9.54994 15.5466 11.2589 14.9474 12.635 13.847L12.4008 13.5541L12.1666 13.2612C10.9234 14.2553 9.37973 14.7965 7.78899 14.796L7.78888 15.171ZM0.562566 9.4265L0.197025 9.51019C1.00786 13.0517 4.16095 15.5587 7.79018 15.546L7.78888 15.171L7.78758 14.796C4.50973 14.8074 1.66083 12.5431 0.928108 9.34281L0.562566 9.4265ZM4.56804 1.10324L4.40566 0.76522C1.13368 2.33699 -0.613789 5.96877 0.197025 9.51019L0.562566 9.4265L0.928108 9.34281C0.19537 6.1424 1.77475 2.86109 4.73041 1.44126L4.56804 1.10324ZM13.5575 3.1841L13.8517 2.95167C11.6007 0.101579 7.6778 -0.806627 4.40566 0.76522L4.56804 1.10324L4.73041 1.44126C7.68592 0.0215155 11.2294 0.841614 13.2632 3.41653L13.5575 3.1841ZM13.5089 12.4233L13.8007 12.6588C16.0815 9.83276 16.1027 5.80159 13.8517 2.95167L13.5575 3.1841L13.2632 3.41653C15.297 5.99161 15.2779 9.63428 13.2171 12.1878L13.5089 12.4233ZM14.5643 13.1525L14.7774 12.844L13.7221 12.1148L13.5089 12.4233L13.2957 12.7318L14.3511 13.461L14.5643 13.1525ZM15.0181 13.5224L15.2865 13.2605C15.1299 13.1 14.9554 12.9578 14.7666 12.8368L14.5643 13.1525L14.3619 13.4682C14.5027 13.5585 14.6328 13.6645 14.7497 13.7843L15.0181 13.5224ZM7.78905 13.0571V12.6821C5.08236 12.6821 2.88727 10.4847 2.88727 7.77298H2.51227H2.13727C2.13727 10.8979 4.66717 13.4321 7.78905 13.4321V13.0571ZM11.5203 11.5094L11.255 11.2445C10.3357 12.165 9.08892 12.6821 7.78905 12.6821V13.0571V13.4321C9.28817 13.4321 10.7258 12.8358 11.7857 11.7744L11.5203 11.5094ZM13.0658 7.77298H12.6908C12.6908 9.07514 12.1743 10.3239 11.255 11.2445L11.5203 11.5094L11.7857 11.7744C12.8455 10.7131 13.4408 9.27371 13.4408 7.77298H13.0658ZM7.78905 2.48884V2.86384C10.4957 2.86384 12.6908 5.06125 12.6908 7.77298H13.0658H13.4408C13.4408 4.64802 10.9109 2.11384 7.78905 2.11384V2.48884ZM2.51227 7.77298H2.88727C2.88727 5.06125 5.08236 2.86384 7.78905 2.86384V2.48884V2.11384C4.66717 2.11384 2.13727 4.64802 2.13727 7.77298H2.51227Z" fill="white"/>
</svg>
